<svg aria-hidden="true"  viewBox="0 0 120 120" xmlns="http://www.w3.org/2000/svg"><circle cx="60" cy="60" r="52" fill="none" stroke="#50b8e7" stroke-width="2" opacity=".9"/><circle cx="60" cy="60" r="46" fill="none" stroke="#50b8e7" stroke-width="1" opacity=".28"/><path d="M60 8v6M60 106v6M8 60h6M106 60h6" stroke="#50b8e7" stroke-width="2" opacity=".5"/><path d="M60 26v69M49 40h22" stroke="#50b8e7" stroke-width="4"/><path d="M60 42c-18 6-17 15 0 20 17 5 18 14 0 21M60 50c17 6 17 15 0 20" fill="none" stroke="#50b8e7" stroke-width="2"/><path d="M37 77 83 48" stroke="#50b8e7" stroke-width="3"/><polygon points="36.0,74.0 36.9,76.8 39.8,76.8 37.4,78.5 38.4,81.2 36.0,79.5 33.6,81.2 34.6,78.5 32.2,76.8 35.1,76.8" fill="none" stroke="#50b8e7" stroke-width="2" /><polygon points="84.0,43.0 84.9,45.8 87.8,45.8 85.4,47.5 86.4,50.2 84.0,48.5 81.6,50.2 82.6,47.5 80.2,45.8 83.1,45.8" fill="none" stroke="#50b8e7" stroke-width="2" /></svg>