<svg aria-hidden="true"  viewBox="0 0 120 120" xmlns="http://www.w3.org/2000/svg"><circle cx="60" cy="60" r="52" fill="none" stroke="#50b8e7" stroke-width="2" opacity=".9"/><circle cx="60" cy="60" r="46" fill="none" stroke="#50b8e7" stroke-width="1" opacity=".28"/><path d="M60 8v6M60 106v6M8 60h6M106 60h6" stroke="#50b8e7" stroke-width="2" opacity=".5"/><path d="M22 76c11-15 22-23 34-20l12-13 13 6 7 15-8 8-13-2-8 14-13-6-9 8-13-3" fill="none" stroke="#50b8e7" stroke-width="3"/><path d="M58 43 72 32l-2 17M72 32l17 5-16 8" fill="none" stroke="#50b8e7" stroke-width="2"/><polygon points="80.0,34.0 80.9,36.8 83.8,36.8 81.4,38.5 82.4,41.2 80.0,39.5 77.6,41.2 78.6,38.5 76.2,36.8 79.1,36.8" fill="none" stroke="#50b8e7" stroke-width="2" /></svg>