<svg aria-hidden="true"  viewBox="0 0 120 120" xmlns="http://www.w3.org/2000/svg"><circle cx="60" cy="60" r="52" fill="none" stroke="#50b8e7" stroke-width="2" opacity=".9"/><circle cx="60" cy="60" r="46" fill="none" stroke="#50b8e7" stroke-width="1" opacity=".28"/><path d="M60 8v6M60 106v6M8 60h6M106 60h6" stroke="#50b8e7" stroke-width="2" opacity=".5"/><path d="M25 43q12-12 24 0t24 0t22 0M25 77q12-12 24 0t24 0t22 0" fill="none" stroke="#50b8e7" stroke-width="3"/><path d="M42 60h36M42 60l8-6M42 60l8 6M78 60l-8-6M78 60l-8 6" fill="none" stroke="#50b8e7" stroke-width="2"/><polygon points="23.0,39.0 23.9,41.8 26.8,41.8 24.4,43.5 25.4,46.2 23.0,44.5 20.6,46.2 21.6,43.5 19.2,41.8 22.1,41.8" fill="none" stroke="#50b8e7" stroke-width="2" /><polygon points="97.0,73.0 97.9,75.8 100.8,75.8 98.4,77.5 99.4,80.2 97.0,78.5 94.6,80.2 95.6,77.5 93.2,75.8 96.1,75.8" fill="none" stroke="#50b8e7" stroke-width="2" /></svg>