<svg aria-hidden="true"  viewBox="0 0 120 120" xmlns="http://www.w3.org/2000/svg"><circle cx="60" cy="60" r="52" fill="none" stroke="#50b8e7" stroke-width="2" opacity=".9"/><circle cx="60" cy="60" r="46" fill="none" stroke="#50b8e7" stroke-width="1" opacity=".28"/><path d="M60 8v6M60 106v6M8 60h6M106 60h6" stroke="#50b8e7" stroke-width="2" opacity=".5"/><path d="M71 23 45 58h17L48 96l30-44H61Z" fill="none" stroke="#50b8e7" stroke-width="4"/><polygon points="47.0,52.0 48.3,55.7 52.0,57.0 48.3,58.3 47.0,62.0 45.7,58.3 42.0,57.0 45.7,55.7" fill="none" stroke="#50b8e7" stroke-width="2" /><polygon points="70.0,55.0 71.3,58.7 75.0,60.0 71.3,61.3 70.0,65.0 68.7,61.3 65.0,60.0 68.7,58.7" fill="none" stroke="#50b8e7" stroke-width="2" /></svg>