<svg aria-hidden="true"  viewBox="0 0 120 120" xmlns="http://www.w3.org/2000/svg"><circle cx="60" cy="60" r="52" fill="none" stroke="#50b8e7" stroke-width="2" opacity=".9"/><circle cx="60" cy="60" r="46" fill="none" stroke="#50b8e7" stroke-width="1" opacity=".28"/><path d="M60 8v6M60 106v6M8 60h6M106 60h6" stroke="#50b8e7" stroke-width="2" opacity=".5"/><path d="M33 29q13-8 27 1 14-9 27-1v60q-13-8-27 1-14-9-27-1Z" fill="none" stroke="#50b8e7" stroke-width="3"/><path d="M60 30v60" stroke="#50b8e7" stroke-width="2"/><text x="47" y="67" fill="#50b8e7" font-size="25" font-family="serif">ᛗ</text><polygon points="27.0,22.0 28.1,24.9 31.0,26.0 28.1,27.1 27.0,30.0 25.9,27.1 23.0,26.0 25.9,24.9" fill="none" stroke="#50b8e7" stroke-width="2" /><polygon points="93.0,22.0 94.1,24.9 97.0,26.0 94.1,27.1 93.0,30.0 91.9,27.1 89.0,26.0 91.9,24.9" fill="none" stroke="#50b8e7" stroke-width="2" /><polygon points="27.0,90.0 28.1,92.9 31.0,94.0 28.1,95.1 27.0,98.0 25.9,95.1 23.0,94.0 25.9,92.9" fill="none" stroke="#50b8e7" stroke-width="2" /><polygon points="93.0,90.0 94.1,92.9 97.0,94.0 94.1,95.1 93.0,98.0 91.9,95.1 89.0,94.0 91.9,92.9" fill="none" stroke="#50b8e7" stroke-width="2" /></svg>