<svg aria-hidden="true"  viewBox="0 0 120 120" xmlns="http://www.w3.org/2000/svg"><circle cx="60" cy="60" r="52" fill="none" stroke="#50b8e7" stroke-width="2" opacity=".9"/><circle cx="60" cy="60" r="46" fill="none" stroke="#50b8e7" stroke-width="1" opacity=".28"/><path d="M60 8v6M60 106v6M8 60h6M106 60h6" stroke="#50b8e7" stroke-width="2" opacity=".5"/><path d="M24 80c22 4 23-20 39-20 11 0 17 9 14 18-3 11-18 13-25 3 10 2 13-10 5-13-12-5-18 18-36 18" fill="none" stroke="#50b8e7" stroke-width="4"/><path d="M66 37c8 8 14 15 20 27" stroke="#50b8e7" stroke-width="3"/><circle cx="80" cy="35" r="3" fill="#50b8e7"/><circle cx="90" cy="45" r="3" fill="#50b8e7"/><circle cx="94" cy="57" r="3" fill="#50b8e7"/></svg>