<svg aria-hidden="true"  viewBox="0 0 120 120" xmlns="http://www.w3.org/2000/svg"><circle cx="60" cy="60" r="52" fill="none" stroke="#50b8e7" stroke-width="2" opacity=".9"/><circle cx="60" cy="60" r="46" fill="none" stroke="#50b8e7" stroke-width="1" opacity=".28"/><path d="M60 8v6M60 106v6M8 60h6M106 60h6" stroke="#50b8e7" stroke-width="2" opacity=".5"/><path d="M28 91V65a32 32 0 0 1 64 0v26H28Z" fill="none" stroke="#50b8e7" stroke-width="4"/><path d="M39 91V66a21 21 0 0 1 42 0v25" fill="none" stroke="#50b8e7" stroke-width="2"/><polygon points="60.0,61.0 61.6,65.8 66.7,65.8 62.5,68.8 64.1,73.7 60.0,70.7 55.9,73.7 57.5,68.8 53.3,65.8 58.4,65.8" fill="none" stroke="#50b8e7" stroke-width="2" /></svg>